<?xml version="1.0" encoding="UTF-8"?>
<svg id="Camada_2" xmlns="http://www.w3.org/2000/svg" xmlns:xlink="http://www.w3.org/1999/xlink" viewBox="0 0 822.64 153.98">
  <defs>
    <style>
      .cls-1 {
        fill: url(#Gradiente_sem_nome_2);
      }

      .cls-2 {
        fill: #e94c4d;
      }

      .cls-3 {
        fill: #f39323;
      }

      .cls-4 {
        fill: #010101;
      }
    </style>
    <linearGradient id="Gradiente_sem_nome_2" data-name="Gradiente sem nome 2" x1="1093.08" y1="836.09" x2="1163.22" y2="765.95" gradientTransform="translate(-981.46 881.38) scale(1 -1)" gradientUnits="userSpaceOnUse">
      <stop offset="0" stop-color="#f39323"/>
      <stop offset="1" stop-color="#e94c4d"/>
    </linearGradient>
  </defs>
  <g id="Camada_1-2" data-name="Camada_1">
    <g>
      <path class="cls-4" d="M387.07,45.41c-4.83-.07-9.62.8-14.13,2.56-4.03,1.59-7.6,4.16-10.4,7.49v-6.75c0-1.37-1.11-2.48-2.48-2.48h-10.97c-1.37,0-2.48,1.11-2.48,2.48v66.43c.04,1.39,1.16,2.5,2.55,2.5h11.71c1.37,0,2.48-1.13,2.46-2.5v-33.62c-.04-6.95,1.72-12.28,5.28-15.98,3.56-3.69,8.39-5.54,14.52-5.54,5.41.03,9.59,1.61,12.51,4.75,2.94,3.14,4.4,7.83,4.4,14.08v36.28h0c0,1.38,1.11,2.5,2.47,2.5h11.7c1.4,0,2.52-1.11,2.55-2.5v-38.4c-.02-10.33-2.71-18.14-8.13-23.4-5.41-5.26-12.61-7.89-21.6-7.9Z"/>
      <path class="cls-4" d="M504.43,46.22h-11.78c-1.37,0-2.47,1.11-2.47,2.48v33.62c0,7.02-1.74,12.28-5.25,15.98-3.53,3.7-8.24,5.56-14.2,5.56-5.31,0-9.43-1.59-12.32-4.75-2.89-3.16-4.34-7.95-4.34-14.37v-36.02c0-1.37-1.11-2.48-2.47-2.48h-11.7c-1.37,0-2.47,1.11-2.47,2.48v38.25c-.02,10.42,2.71,18.28,8.19,23.59,5.48,5.31,12.95,7.96,22.44,7.96,4.44.05,8.84-.82,12.94-2.56,3.87-1.65,7.28-4.19,10-7.41v6.59h0c0,1.38,1.11,2.5,2.47,2.5h10.94c1.37,0,2.49-1.13,2.47-2.5V48.71c0-1.36-1.09-2.46-2.44-2.48Z"/>
      <path class="cls-4" d="M618.26,45.46c-5.27-.07-10.48,1.01-15.29,3.15-4.45,1.94-8.32,4.95-11.33,8.76-2.32-3.86-5.74-6.95-9.78-8.9-4.44-2.07-9.3-3.1-14.2-3.01-4.57-.06-9.09.81-13.31,2.56-3.88,1.6-7.31,4.12-10,7.35v-6.66c0-1.37-1.12-2.48-2.49-2.48h-10.91c-1.37,0-2.47,1.11-2.47,2.48v66.45h0c0,1.38,1.11,2.5,2.47,2.5h11.7c1.38,0,2.52-1.11,2.55-2.5v-33.74c-.02-6.96,1.66-12.26,4.99-15.91,3.33-3.65,7.83-5.48,13.52-5.48,5.15.03,9.1,1.61,11.86,4.75,2.75,3.14,4.13,7.83,4.13,14.08v36.28c.03,1.39,1.15,2.5,2.55,2.5h11.7c1.37,0,2.49-1.13,2.47-2.5v-33.74c0-6.86,1.69-12.14,5.1-15.85,3.45-3.74,8.37-5.76,13.46-5.54,5.15.03,9.12,1.61,11.86,4.75,2.73,3.14,4.11,7.83,4.11,14.08v36.28c.03,1.39,1.15,2.5,2.55,2.5h11.7c1.37,0,2.49-1.13,2.47-2.5v-38.4c0-10.42-2.62-18.24-7.87-23.47-5.23-5.21-12.42-7.81-21.57-7.78Z"/>
      <path class="cls-4" d="M719.13,50.04c-5.69-3.14-12.09-4.73-18.59-4.62-6.6-.1-13.12,1.51-18.9,4.68-5.51,3.03-10.06,7.54-13.13,13.03-3.2,5.74-4.83,12.22-4.73,18.79-.1,6.63,1.56,13.17,4.86,18.92,3.25,5.58,8.03,10.11,13.78,13.03,6.4,3.23,13.51,4.84,20.66,4.69,5.66.09,11.28-.91,16.58-2.94,3.95-1.55,7.54-3.91,10.53-6.93.94-.96.99-2.49.1-3.5l-5.72-6.58c-.91-1.06-2.52-1.17-3.58-.26-4.91,4.07-11.1,6.22-17.46,6.03-5.49.2-10.91-1.43-15.39-4.62-4.08-2.99-6.84-7.48-7.65-12.49h55.81c.18-2.15.28-3.75.29-4.92.13-6.73-1.45-13.38-4.6-19.32-2.96-5.48-7.43-9.99-12.86-13.01ZM680.33,76.18c.62-4.9,3.01-9.41,6.74-12.65,3.77-3.19,8.58-4.88,13.52-4.74,4.97-.16,9.82,1.55,13.57,4.81,3.67,3.23,5.98,7.71,6.53,12.57h-40.37Z"/>
      <path class="cls-4" d="M814.51,53.3c-5.43-5.26-12.61-7.89-21.53-7.9-4.83-.07-9.64.8-14.14,2.56-4.03,1.59-7.59,4.16-10.37,7.49v-6.82c-.05-1.37-1.19-2.45-2.55-2.41h-10.91c-1.37,0-2.47,1.11-2.47,2.48v66.43h0c0,1.38,1.11,2.5,2.47,2.5h11.72c1.37,0,2.47-1.13,2.45-2.5v-33.62c0-6.95,1.77-12.28,5.33-15.98,3.56-3.69,8.4-5.54,14.53-5.54,5.43.03,9.61,1.61,12.53,4.75,2.93,3.14,4.39,7.83,4.39,14.08v36.28c.03,1.39,1.15,2.5,2.55,2.5h11.65c1.37,0,2.49-1.13,2.47-2.5v-38.4c.02-10.33-2.71-18.14-8.13-23.4Z"/>
    </g>
    <g>
      <path class="cls-2" d="M286.85,82.89h-70.14c-3.25,0-5.88-2.63-5.89-5.89V6.59c0-3.26,2.64-5.91,5.89-5.91h70.14c3.25,0,5.89,2.64,5.89,5.91v70.39c0,3.26-2.64,5.91-5.89,5.91ZM222.6,71.08h58.36V12.5h-58.36v58.58Z"/>
      <path class="cls-1" d="M216.71,153.98h-72.89c-1.57,0-3.08-.63-4.19-1.75l-68.07-69.01c-1.09-1.11-1.71-2.6-1.71-4.16V5.91c0-3.26,2.63-5.9,5.87-5.91h72.89c1.57,0,3.08.63,4.18,1.75l68.09,69.01c1.09,1.11,1.7,2.6,1.7,4.16v73.15c0,3.26-2.63,5.9-5.87,5.91ZM146.27,142.16h64.55v-64.82L146.17,11.81h-64.54v64.82l64.64,65.53Z"/>
      <path class="cls-3" d="M76.03,153.29H5.89c-3.25,0-5.89-2.64-5.89-5.91v-70.4c0-3.26,2.64-5.91,5.89-5.91h70.15c3.25,0,5.89,2.64,5.89,5.91v70.38c0,3.26-2.62,5.91-5.87,5.92h-.02ZM11.77,141.48h58.36v-58.59H11.76l.02,58.59Z"/>
    </g>
  </g>
</svg>