<?xml version="1.0" encoding="utf-8"?>
<svg height="228" overflow="hidden" width="294" xml:space="preserve" xmlns="http://www.w3.org/2000/svg" xmlns:xlink="http://www.w3.org/1999/xlink"><defs><clipPath id="clip0"><rect height="228" width="294" x="493" y="246"/></clipPath><linearGradient gradientUnits="userSpaceOnUse" id="fill1" spreadMethod="pad" x1="1093.16" x2="1163.3" y1="-316.62" y2="-246.481"><stop offset="0" stop-color="#F7931E"/><stop offset="1" stop-color="#FF4848"/></linearGradient></defs><g clip-path="url(#clip0)" transform="translate(-493 -246)"><path d="M1020.68-171.569C1024.01-168.342 1025.67-163.559 1025.68-157.223L1025.68-133.678C1025.66-132.827 1024.97-132.148 1024.11-132.148L1016.91-132.148C1016.07-132.148 1015.39-132.83 1015.39-133.671 1015.39-133.673 1015.39-133.676 1015.39-133.678L1015.39-155.92C1015.39-159.75 1014.49-162.628 1012.68-164.553 1010.88-166.478 1008.31-167.449 1004.98-167.465 1001.21-167.465 998.236-166.332 996.046-164.067 993.857-161.801 992.774-158.536 992.797-154.272L992.797-133.663C992.805-132.822 992.122-132.137 991.282-132.132 991.282-132.132 991.275-132.132 991.275-132.132L984.078-132.132C983.222-132.132 982.532-132.811 982.508-133.663L982.508-174.387C982.508-175.228 983.191-175.91 984.031-175.91 984.046-175.91 984.062-175.91 984.078-175.91L990.78-175.91C991.62-175.91 992.303-175.228 992.303-174.387L992.303-170.251C994.022-172.29 996.219-173.868 998.699-174.842 1001.47-175.924 1004.42-176.457 1007.39-176.412 1012.92-176.406 1017.35-174.793 1020.68-171.569Z" fill="#000000" transform="matrix(1 0 0 1.0036 -488.457 606.033)"/><path d="M1081.1-174.387 1081.1-133.663C1081.11-132.822 1080.42-132.137 1079.58-132.132 1079.58-132.132 1079.57-132.132 1079.57-132.132L1072.85-132.132C1072.01-132.132 1071.33-132.814 1071.33-133.655 1071.33-133.657 1071.33-133.66 1071.33-133.663L1071.33-137.704C1069.66-135.727 1067.56-134.17 1065.18-133.16 1062.66-132.094 1059.95-131.559 1057.22-131.591 1051.38-131.591 1046.78-133.218 1043.41-136.472 1040.04-139.727 1038.36-144.548 1038.37-150.937L1038.37-174.387C1038.37-175.228 1039.05-175.91 1039.89-175.91L1047.09-175.91C1047.93-175.91 1048.61-175.228 1048.61-174.387L1048.61-152.302C1048.61-148.362 1049.5-145.425 1051.28-143.489 1053.06-141.552 1055.59-140.582 1058.86-140.577 1062.53-140.577 1065.43-141.715 1067.6-143.983 1069.76-146.251 1070.83-149.477 1070.83-153.778L1070.83-174.387C1070.83-175.228 1071.51-175.91 1072.35-175.91 1072.37-175.91 1072.39-175.91 1072.4-175.91L1079.6-175.91C1080.43-175.897 1081.1-175.219 1081.1-174.387Z" fill="#000000" transform="matrix(1 0 0 1.0036 -488.457 606.033)"/><path d="M1162.91-171.609C1166.14-168.407 1167.75-163.611 1167.75-157.223L1167.75-133.678C1167.76-132.838 1167.07-132.153 1166.23-132.148 1166.23-132.148 1166.23-132.148 1166.23-132.148L1159.03-132.148C1158.17-132.148 1157.48-132.827 1157.46-133.678L1157.46-155.92C1157.46-159.75 1156.61-162.628 1154.93-164.553 1153.24-166.478 1150.8-167.449 1147.63-167.465 1144.5-167.6 1141.47-166.357 1139.35-164.067 1137.25-161.796 1136.21-158.557 1136.21-154.351L1136.21-133.663C1136.22-132.822 1135.53-132.137 1134.69-132.132 1134.69-132.132 1134.68-132.132 1134.68-132.132L1127.49-132.132C1126.63-132.132 1125.94-132.811 1125.92-133.663L1125.92-155.904C1125.92-159.734 1125.07-162.612 1123.38-164.537 1121.68-166.463 1119.25-167.433 1116.08-167.449 1112.58-167.449 1109.81-166.329 1107.76-164.09 1105.71-161.851 1104.68-158.599 1104.69-154.335L1104.69-133.647C1104.67-132.795 1103.97-132.117 1103.12-132.117L1095.92-132.117C1095.08-132.117 1094.4-132.799 1094.4-133.639 1094.4-133.641 1094.4-133.645 1094.4-133.647L1094.4-174.387C1094.4-175.228 1095.08-175.91 1095.92-175.91L1102.63-175.91C1103.47-175.91 1104.16-175.228 1104.16-174.387L1104.16-170.306C1105.81-172.285 1107.92-173.832 1110.31-174.811 1112.91-175.884 1115.69-176.417 1118.5-176.38 1121.52-176.439 1124.51-175.808 1127.24-174.536 1129.73-173.344 1131.83-171.448 1133.26-169.082 1135.11-171.415 1137.49-173.258 1140.23-174.45 1143.19-175.761 1146.4-176.42 1149.64-176.38 1155.27-176.396 1159.69-174.805 1162.91-171.609Z" fill="#000000" transform="matrix(1 0 0 1.0036 -488.457 606.033)"/><path d="M1222.26-150.74 1187.92-150.74C1188.42-147.668 1190.12-144.917 1192.63-143.081 1195.39-141.122 1198.72-140.126 1202.1-140.247 1206.01-140.133 1209.82-141.447 1212.84-143.944 1213.49-144.506 1214.48-144.436 1215.04-143.787L1218.56-139.753C1219.11-139.134 1219.08-138.197 1218.5-137.61 1216.66-135.76 1214.45-134.313 1212.02-133.364 1208.76-132.115 1205.3-131.502 1201.82-131.559 1197.42-131.467 1193.05-132.452 1189.11-134.432 1185.57-136.225 1182.63-138.999 1180.63-142.421 1178.6-145.948 1177.58-149.956 1177.64-154.021 1177.58-158.051 1178.58-162.025 1180.55-165.542 1182.44-168.908 1185.24-171.676 1188.63-173.532 1192.19-175.477 1196.2-176.467 1200.26-176.404 1204.26-176.473 1208.2-175.496 1211.7-173.571 1215.04-171.722 1217.79-168.955 1219.61-165.597 1221.55-161.956 1222.52-157.878 1222.44-153.754 1222.43-153.04 1222.37-152.059 1222.26-150.74ZM1191.98-165.299C1189.68-163.313 1188.21-160.552 1187.83-157.545L1212.67-157.545C1212.33-160.524 1210.91-163.272 1208.65-165.252 1206.34-167.25 1203.36-168.303 1200.3-168.203 1197.26-168.29 1194.3-167.256 1191.98-165.299Z" fill="#000000" transform="matrix(1 0 0 1.0036 -488.457 606.033)"/><path d="M1270.39-171.569C1273.72-168.342 1275.4-163.559 1275.39-157.223L1275.39-133.678C1275.4-132.838 1274.71-132.153 1273.87-132.148 1273.87-132.148 1273.86-132.148 1273.86-132.148L1266.7-132.148C1265.84-132.148 1265.15-132.827 1265.13-133.678L1265.13-155.92C1265.13-159.75 1264.23-162.628 1262.43-164.553 1260.63-166.478 1258.06-167.449 1254.72-167.465 1250.95-167.465 1247.97-166.332 1245.78-164.067 1243.59-161.801 1242.5-158.536 1242.5-154.272L1242.5-133.663C1242.51-132.822 1241.83-132.137 1240.99-132.132 1240.99-132.132 1240.98-132.132 1240.98-132.132L1233.78-132.132C1232.94-132.132 1232.26-132.814 1232.26-133.655 1232.26-133.657 1232.26-133.66 1232.26-133.663L1232.26-174.387C1232.26-175.228 1232.94-175.91 1233.78-175.91L1240.49-175.91C1241.33-175.935 1242.03-175.275 1242.06-174.435 1242.06-174.419 1242.06-174.403 1242.06-174.387L1242.06-170.251C1243.77-172.292 1245.96-173.87 1248.44-174.842 1251.21-175.924 1254.17-176.457 1257.14-176.412 1262.63-176.406 1267.05-174.793 1270.39-171.569Z" fill="#000000" transform="matrix(1 0 0 1.0036 -488.457 606.033)"/><path d="M1268.38-276.147 1198.24-276.147C1194.99-276.142 1192.36-278.77 1192.35-282.017 1192.35-282.023 1192.35-282.027 1192.35-282.033L1192.35-352.172C1192.35-355.423 1194.99-358.058 1198.24-358.058L1268.38-358.058C1271.63-358.058 1274.27-355.423 1274.27-352.172L1274.27-282.033C1274.27-278.782 1271.63-276.147 1268.38-276.147ZM1204.13-287.919 1262.49-287.919 1262.49-346.286 1204.13-346.286Z" fill="#FF4848" transform="matrix(1 0 0 1.0036 -488.457 606.033)"/><path d="M1198.24-205.317 1125.35-205.317C1123.78-205.318 1122.27-205.945 1121.16-207.059L1053.09-275.825C1052-276.928 1051.38-278.417 1051.38-279.969L1051.38-352.855C1051.38-356.102 1054.01-358.736 1057.25-358.741 1057.26-358.741 1057.26-358.741 1057.27-358.741L1130.14-358.741C1131.71-358.74 1133.22-358.113 1134.32-356.999L1202.41-288.233C1203.5-287.13 1204.11-285.641 1204.11-284.089L1204.11-211.203C1204.11-207.958 1201.48-205.325 1198.24-205.317ZM1127.8-217.089 1192.35-217.089 1192.35-281.672 1127.7-346.969 1063.16-346.969 1063.16-282.386Z" fill="url(#fill1)" transform="matrix(1 0 0 1.0036 -488.457 606.033)"/><path d="M1057.56-206 987.413-206C984.164-206 981.527-208.635 981.527-211.886L981.527-282.033C981.527-285.284 984.164-287.919 987.413-287.919L1057.56-287.919C1060.81-287.919 1063.45-285.284 1063.45-282.033L1063.45-211.901C1063.45-208.651 1060.83-206.008 1057.58-206 1057.57-206 1057.57-206 1057.56-206ZM993.299-217.772 1051.66-217.772 1051.66-276.147 993.284-276.147Z" fill="#F7931E" transform="matrix(1 0 0 1.0036 -488.457 606.033)"/></g></svg>