<?xml version="1.0" encoding="UTF-8"?>
<svg id="Camada_2" xmlns="http://www.w3.org/2000/svg" viewBox="0 0 78.27 78.3">
  <defs>
    <style>
      .cls-1 {
        fill: #57c4ef;
      }

      .cls-2 {
        fill: #f28f52;
      }
    </style>
  </defs>
  <g id="Camada_1-2" data-name="Camada_1">
    <g>
      <path class="cls-1" d="M78.25,38.72c0-.53-.19-.67-.72-.67-3.51,0-7.02,0-10.53,0-.89,0-1.77,0-2.66-.01-.54,0-1.09.01-1.63-.02-.56-.04-.67.06-.67.62,0,.79-.01,1.58-.04,2.37-.06,1.87-.5,3.68-1.1,5.44-.63,1.86-1.39,3.69-2.58,5.27-1.01,1.35-2.09,2.67-3.24,3.9-1.23,1.32-2.76,2.28-4.29,3.25-2.02,1.28-4.22,2.11-6.53,2.64-1.84.42-3.72.62-5.61.62-1.91,0-3.75-.54-5.63-.8-.12-.02-.23-.08-.35-.12-.96-.38-1.93-.74-2.88-1.15-.66-.29-1.32-.59-1.93-.97-.87-.53-1.7-1.13-2.55-1.71-1.07-.73-2.02-1.59-2.85-2.58-.82-.98-1.57-2.02-2.38-3.02-1.13-1.4-1.85-3.03-2.45-4.7-.43-1.19-.69-2.44-.96-3.68-.9-4.16-.42-8.23.99-12.21.52-1.47,1.2-2.89,2.06-4.22.95-1.47,2.07-2.81,3.28-4.08,1.12-1.17,2.4-2.16,3.77-3.01,1.13-.7,2.31-1.36,3.52-1.89,1.03-.45,2.15-.7,3.23-1.05,2.02-.65,4.1-.73,6.19-.67.41.01.52-.08.52-.48,0-2.51,0-5.03,0-7.54h-.02c0-2.38,0-4.75,0-7.13,0-.98-.1-1.09-1.07-1.13-.14,0-.27,0-.41,0-2.13-.03-4.23.21-6.31.6-.79.15-1.58.31-2.36.49-.36.08-.7.23-1.06.32-1.76.42-3.49.95-5.12,1.71-1.64.77-3.33,1.42-4.83,2.46-1.26.88-2.61,1.65-3.82,2.59-1.87,1.47-3.63,3.06-5.22,4.83-1.57,1.75-2.95,3.64-4.17,5.65-.77,1.28-1.49,2.6-2.13,3.95-.69,1.47-1.37,2.96-1.84,4.5-.75,2.49-1.32,5.03-1.6,7.64-.2,1.89-.34,3.77-.26,5.68.19,4.09.88,8.08,2.36,11.92.49,1.27.94,2.56,1.54,3.79.7,1.42,1.52,2.77,2.31,4.14.3.53.6,1.08.98,1.55,1.01,1.26,2.02,2.51,3.1,3.7.94,1.04,1.94,2.03,2.98,2.97,1.44,1.3,2.95,2.5,4.62,3.51,1.2.73,2.38,1.49,3.62,2.14,1.05.55,2.16.99,3.27,1.4,1.39.51,2.81.95,4.23,1.38,1.76.53,3.55.89,5.38,1.02,2.07.14,4.13.49,6.21.28.64-.07,1.28-.14,1.92-.16,3.03-.09,5.95-.79,8.8-1.72,1.77-.58,3.48-1.34,5.17-2.13,1.28-.6,2.5-1.34,3.7-2.09.97-.6,1.9-1.28,2.8-1.98.95-.74,1.86-1.52,2.76-2.32.77-.69,1.53-1.4,2.23-2.17.67-.73,1.23-1.57,1.89-2.31,1.34-1.5,2.32-3.23,3.33-4.95.63-1.06,1.14-2.2,1.66-3.33.46-1.02.9-2.05,1.26-3.1.39-1.14.72-2.31,1.01-3.49.27-1.09.42-2.2.66-3.29.49-2.14.46-4.31.43-6.48Z"/>
      <path class="cls-2" d="M33.59,47.32l27.13-9.48c.43-.15.71-.55.71-1v-19.76c0-.59-.48-1.06-1.06-1.06h-17.59c-.46,0-.87.3-1.01.73l-9.54,29.25c-.27.84.53,1.62,1.36,1.33Z"/>
    </g>
  </g>
</svg>